<svg aria-hidden="true" style="position: absolute; width: 0; height: 0; overflow: hidden;"
    version="1.1" xmlns="http://www.w3.org/2000/svg" xmlns:xlink="http://www.w3.org/1999/xlink">
    <defs>
        <symbol id="icon-name" viewBox="0 0 10 10">
            <path
                d="M5 5c0.921 0 1.667-0.746 1.667-1.667s-0.746-1.667-1.667-1.667c-0.921 0-1.667 0.746-1.667 1.667s0.746 1.667 1.667 1.667zM5 5.833c-1.113 0-3.333 0.558-3.333 1.667v0.417c0 0.229 0.188 0.417 0.417 0.417h5.833c0.229 0 0.417-0.188 0.417-0.417v-0.417c0-1.108-2.221-1.667-3.333-1.667z"></path>
        </symbol>
        <symbol id="icon-email" viewBox="0 0 10 10">
            <path
                d="M8.333 1.667h-6.667c-0.458 0-0.829 0.375-0.829 0.833l-0.004 5c0 0.458 0.375 0.833 0.833 0.833h6.667c0.458 0 0.833-0.375 0.833-0.833v-5c0-0.458-0.375-0.833-0.833-0.833zM8.167 3.438l-2.946 1.842c-0.133 0.083-0.308 0.083-0.442 0l-2.946-1.842c-0.104-0.067-0.167-0.179-0.167-0.3 0-0.279 0.304-0.446 0.542-0.3l2.792 1.746 2.792-1.746c0.237-0.146 0.542 0.021 0.542 0.3 0 0.121-0.063 0.233-0.167 0.3z"></path>
        </symbol>
        <symbol id="icon-phone" viewBox="0 0 10 10">
            <path
                d="M7.776 6.179l-1.021-0.117c-0.245-0.028-0.487 0.056-0.659 0.229l-0.74 0.74c-1.138-0.579-2.071-1.508-2.649-2.65l0.744-0.744c0.173-0.173 0.257-0.414 0.229-0.659l-0.117-1.013c-0.048-0.406-0.39-0.712-0.8-0.712h-0.696c-0.454 0-0.832 0.378-0.804 0.832 0.213 3.433 2.959 6.175 6.388 6.389 0.454 0.028 0.832-0.35 0.832-0.804v-0.695c0.004-0.406-0.302-0.748-0.708-0.796z"></path>
        </symbol>
        <symbol id="icon-vector" viewBox="0 0 11 10">
            <path
                d="M9.481 1.111v7.778h-8.296v-7.778h8.296zM9.481 0h-8.296c-0.652 0-1.185 0.5-1.185 1.111v7.778c0 0.611 0.533 1.111 1.185 1.111h8.296c0.652 0 1.185-0.5 1.185-1.111v-7.778c0-0.611-0.533-1.111-1.185-1.111z"></path>
        </symbol>

        <symbol id="icon-police" viewBox="0 0 13 10">
            <path
                d="M1.957 4.752l-0.069-0.066-1.033 0.979 3.641 3.473 7.649-7.297-1.027-0.979-6.623 6.312-2.539-2.422z"></path>
        </symbol>

        <symbol id="icon-telegram" viewBox="0 0 10 10">
            <path
                d="M10 0l-10 5.625 3.196 1.184 4.929-4.621-3.749 5.058 0.003 0.001-0.004-0.001v2.754l1.792-2.091 2.27 0.841 1.562-8.75z"></path>
        </symbol>
    </defs>
</svg>